{
  "accessors": [
    {
      "bufferView": 1,
      "componentType": 5126,
      "count": 653,
      "max": [
        1.0,
        1.0,
        1.0
      ],
      "min": [
        -1.0,
        -1.0,
        -1.0
      ],
      "type": "VEC3"
    },
    {
      "bufferView": 1,
      "byteOffset": 7836,
      "componentType": 5126,
      "count": 653,
      "max": [
        1.0,
        1.0,
        1.0
      ],
      "min": [
        -1.0,
        -0.9978852272033691,
        -1.0
      ],
      "type": "VEC3"
    },
    {
      "bufferView": 0,
      "componentType": 5125,
      "count": 3720,
      "type": "SCALAR"
    },
    {
      "bufferView": 1,
      "byteOffset": 15672,
      "componentType": 5126,
      "count": 20,
      "max": [
        0.28169000148773193,
        -0.9379299879074097,
        0.18063999712467194
      ],
      "min": [
        -0.28169000148773193,
        -0.9813799858093262,
        0.023579999804496765
      ],
      "type": "VEC3"
    },
    {
      "bufferView": 1,
      "byteOffset": 15912,
      "componentType": 5126,
      "count": 20,
      "max": [
        0.41313979029655457,
        -0.9101415872573853,
        0.17615513503551483
      ],
      "min": [
        -0.37535712122917175,
        -0.9973166584968567,
        -0.03833090886473656
      ],
      "type": "VEC3"
    },
    {
      "bufferView": 0,
      "byteOffset": 14880,
      "componentType": 5125,
      "count": 48,
      "type": "SCALAR"
    },
    {
      "bufferView": 1,
      "byteOffset": 16152,
      "componentType": 5126,
      "count": 18,
      "max": [
        0.5995200276374817,
        -0.7910299897193909,
        -0.01875000074505806
      ],
      "min": [
        -0.5908899903297424,
        -0.9165099859237671,
        -0.17824000120162964
      ],
      "type": "VEC3"
    },
    {
      "bufferView": 1,
      "byteOffset": 16368,
      "componentType": 5126,
      "count": 18,
      "max": [
        0.5642447471618652,
        -0.8031978607177734,
        0.01218025665730238
      ],
      "min": [
        -0.5780556797981262,
        -0.9446676969528198,
        -0.25306421518325806
      ],
      "type": "VEC3"
    },
    {
      "bufferView": 0,
      "byteOffset": 15072,
      "componentType": 5125,
      "count": 48,
      "type": "SCALAR"
    },
    {
      "bufferView": 1,
      "byteOffset": 16584,
      "componentType": 5126,
      "count": 22,
      "max": [
        0.11823000013828278,
        -0.9708799719810486,
        -0.04977000132203102
      ],
      "min": [
        -0.11823000013828278,
        -0.9924100041389465,
        -0.20789000391960144
      ],
      "type": "VEC3"
    },
    {
      "bufferView": 1,
      "byteOffset": 16848,
      "componentType": 5126,
      "count": 22,
      "max": [
        0.2142452895641327,
        -0.962093710899353,
        -0.05377138406038284
      ],
      "min": [
        -0.2142452895641327,
        -0.9972142577171326,
        -0.19617192447185516
      ],
      "type": "VEC3"
    },
    {
      "bufferView": 0,
      "byteOffset": 15264,
      "componentType": 5125,
      "count": 60,
      "type": "SCALAR"
    },
    {
      "bufferView": 1,
      "byteOffset": 17112,
      "componentType": 5126,
      "count": 80,
      "max": [
        0.28169000148773193,
        -0.8154799938201904,
        0.5336499810218811
      ],
      "min": [
        -0.28169000148773193,
        -0.995199978351593,
        -0.07918000221252441
      ],
      "type": "VEC3"
    },
    {
      "bufferView": 1,
      "byteOffset": 18072,
      "componentType": 5126,
      "count": 80,
      "max": [
        0.37529975175857544,
        -0.781046450138092,
        0.5615485906600952
      ],
      "min": [
        -0.37535712122917175,
        -0.9972142577171326,
        -0.11747075617313385
      ],
      "type": "VEC3"
    },
    {
      "bufferView": 0,
      "byteOffset": 15504,
      "componentType": 5125,
      "count": 252,
      "type": "SCALAR"
    },
    {
      "bufferView": 1,
      "byteOffset": 19032,
      "componentType": 5126,
      "count": 30,
      "max": [
        0.24549999833106995,
        -0.8413400053977966,
        0.49970000982284546
      ],
      "min": [
        -0.24549999833106995,
        -0.9254999756813049,
        0.3463299870491028
      ],
      "type": "VEC3"
    },
    {
      "bufferView": 1,
      "byteOffset": 19392,
      "componentType": 5126,
      "count": 30,
      "max": [
        0.3611120283603668,
        -0.7870378494262695,
        0.5403457880020142
      ],
      "min": [
        -0.3611120283603668,
        -0.9294267296791077,
        0.340869665145874
      ],
      "type": "VEC3"
    },
    {
      "bufferView": 0,
      "byteOffset": 16512,
      "componentType": 5125,
      "count": 96,
      "type": "SCALAR"
    }
  ],
  "asset": {
    "extras": {
      "author": "Mark T. Forsyth (https://sketchfab.com/marktforsyth)",
      "license": "CC-BY-4.0 (http://creativecommons.org/licenses/by/4.0/)",
      "source": "https://sketchfab.com/3d-models/kirby-head-4cb4d6cf6f5d407bb3e0e9b5bce8e84d",
      "title": "Kirby Head"
    },
    "generator": "Sketchfab-12.68.0",
    "version": "2.0"
  },
  "bufferViews": [
    {
      "buffer": 0,
      "byteLength": 16896,
      "name": "floatBufferViews",
      "target": 34963
    },
    {
      "buffer": 0,
      "byteLength": 19752,
      "byteOffset": 16896,
      "byteStride": 12,
      "name": "floatBufferViews",
      "target": 34962
    }
  ],
  "buffers": [
    {
      "byteLength": 36648,
      "uri": "scene.bin"
    }
  ],
  "materials": [
    {
      "doubleSided": true,
      "name": "Material.001",
      "pbrMetallicRoughness": {
        "baseColorFactor": [
          1.0,
          0.22699999809265137,
          0.4269999861717224,
          1.0
        ],
        "metallicFactor": 0.0,
        "roughnessFactor": 0.6
      }
    },
    {
      "doubleSided": true,
      "name": "Material.002",
      "pbrMetallicRoughness": {
        "baseColorFactor": [
          0.0,
          0.0,
          1.0,
          1.0
        ],
        "metallicFactor": 0.0,
        "roughnessFactor": 0.6
      }
    },
    {
      "doubleSided": true,
      "name": "Material.004",
      "pbrMetallicRoughness": {
        "baseColorFactor": [
          1.0,
          0.1423845887184143,
          0.4269999861717224,
          1.0
        ],
        "metallicFactor": 0.0,
        "roughnessFactor": 0.6
      }
    },
    {
      "doubleSided": true,
      "name": "Material.005",
      "pbrMetallicRoughness": {
        "baseColorFactor": [
          1.0,
          0.0,
          0.0,
          1.0
        ],
        "metallicFactor": 0.0,
        "roughnessFactor": 0.6
      }
    },
    {
      "doubleSided": true,
      "name": "Material.006",
      "pbrMetallicRoughness": {
        "baseColorFactor": [
          0.0,
          0.0,
          0.0,
          1.0
        ],
        "metallicFactor": 0.0,
        "roughnessFactor": 0.6
      }
    },
    {
      "doubleSided": true,
      "name": "Material.007",
      "pbrMetallicRoughness": {
        "baseColorFactor": [
          0.800000011920929,
          0.800000011920929,
          0.800000011920929,
          1.0
        ],
        "metallicFactor": 0.0,
        "roughnessFactor": 0.6
      }
    }
  ],
  "meshes": [
    {
      "name": "Sphere_0",
      "primitives": [
        {
          "attributes": {
            "NORMAL": 1,
            "POSITION": 0
          },
          "indices": 2,
          "material": 0,
          "mode": 4
        }
      ]
    },
    {
      "name": "Sphere_1",
      "primitives": [
        {
          "attributes": {
            "NORMAL": 4,
            "POSITION": 3
          },
          "indices": 5,
          "material": 1,
          "mode": 4
        }
      ]
    },
    {
      "name": "Sphere_2",
      "primitives": [
        {
          "attributes": {
            "NORMAL": 7,
            "POSITION": 6
          },
          "indices": 8,
          "material": 2,
          "mode": 4
        }
      ]
    },
    {
      "name": "Sphere_3",
      "primitives": [
        {
          "attributes": {
            "NORMAL": 10,
            "POSITION": 9
          },
          "indices": 11,
          "material": 3,
          "mode": 4
        }
      ]
    },
    {
      "name": "Sphere_4",
      "primitives": [
        {
          "attributes": {
            "NORMAL": 13,
            "POSITION": 12
          },
          "indices": 14,
          "material": 4,
          "mode": 4
        }
      ]
    },
    {
      "name": "Sphere_5",
      "primitives": [
        {
          "attributes": {
            "NORMAL": 16,
            "POSITION": 15
          },
          "indices": 17,
          "material": 5,
          "mode": 4
        }
      ]
    }
  ],
  "nodes": [
    {
      "children": [
        1
      ],
      "matrix": [
        1.0,
        0.0,
        0.0,
        0.0,
        0.0,
        2.220446049250313e-16,
        -1.0,
        0.0,
        0.0,
        1.0,
        2.220446049250313e-16,
        0.0,
        0.0,
        0.0,
        0.0,
        1.0
      ],
      "name": "Sketchfab_model"
    },
    {
      "children": [
        2,
        4,
        11
      ],
      "name": "Root"
    },
    {
      "children": [
        3
      ],
      "matrix": [
        -0.9964799999999999,
        -0.08372000000000003,
        -0.0038700000000000015,
        0.0,
        -0.08372000000000003,
        0.9922099999999999,
        0.09220000000000003,
        0.0,
        -0.0038700000000000015,
        0.09220000000000003,
        -0.99573,
        0.0,
        0.052190000000000014,
        -0.05557000000000001,
        -9.074430000000001,
        1.0
      ],
      "name": "Hemi.001"
    },
    {
      "name": "Hemi.001"
    },
    {
      "children": [
        5,
        6,
        7,
        8,
        9,
        10
      ],
      "matrix": [
        3.2575800000000004,
        0.0,
        0.0,
        0.0,
        0.0,
        3.2575800000000004,
        0.0,
        0.0,
        0.0,
        0.0,
        3.2575800000000004,
        0.0,
        0.0,
        0.0,
        0.0,
        1.0
      ],
      "name": "Sphere"
    },
    {
      "mesh": 0,
      "name": "Sphere_0"
    },
    {
      "mesh": 1,
      "name": "Sphere_1"
    },
    {
      "mesh": 2,
      "name": "Sphere_2"
    },
    {
      "mesh": 3,
      "name": "Sphere_3"
    },
    {
      "mesh": 4,
      "name": "Sphere_4"
    },
    {
      "mesh": 5,
      "name": "Sphere_5"
    },
    {
      "children": [
        12
      ],
      "matrix": [
        1.0,
        0.0,
        0.0,
        0.0,
        0.0,
        1.0,
        0.0,
        0.0,
        0.0,
        0.0,
        1.0,
        0.0,
        0.052190000000000014,
        -0.05557000000000001,
        8.01257,
        1.0
      ],
      "name": "Hemi"
    },
    {
      "name": "Hemi"
    }
  ],
  "scene": 0,
  "scenes": [
    {
      "name": "Sketchfab_Scene",
      "nodes": [
        0
      ]
    }
  ]
}
